<svg width="24" height="24" viewBox="0 0 24 24" fill="none" xmlns="http://www.w3.org/2000/svg">
<path d="M17.2498 3.75C18.9066 3.75 20.2498 5.09315 20.2498 6.75V17.25C20.2498 18.9069 18.9066 20.25 17.2498 20.25H6.74976C5.093 20.2499 3.74976 18.9068 3.74976 17.25V6.75C3.74976 5.09322 5.093 3.75012 6.74976 3.75H17.2498ZM13.0457 16.9844C12.3912 17.3278 11.6094 17.3277 10.9548 16.9844L5.24976 13.9912V17.25C5.24976 18.0784 5.92143 18.7499 6.74976 18.75H17.2498C18.0782 18.75 18.7498 18.0784 18.7498 17.25V13.9912L13.0457 16.9844ZM6.74976 5.25C5.92143 5.25012 5.24976 5.92164 5.24976 6.75V12.2959L11.6511 15.6553C11.8693 15.7698 12.1302 15.7698 12.3484 15.6553L18.7498 12.2959V6.75C18.7498 5.92157 18.0782 5.25 17.2498 5.25H6.74976ZM16.4998 7.5C16.914 7.5 17.2498 7.83579 17.2498 8.25C17.2498 8.66421 16.914 9 16.4998 9H15.7498V11.25C15.7498 11.6642 15.414 12 14.9998 12H8.99976C8.58564 11.9999 8.24976 11.6641 8.24976 11.25V9H7.49976C7.08564 8.99988 6.74976 8.66414 6.74976 8.25C6.74976 7.83586 7.08564 7.50012 7.49976 7.5H16.4998ZM9.74976 10.5H14.2498V9H9.74976V10.5Z" fill="white"/>
</svg>
